<svg width="35" height="39" viewBox="0 0 35 39" fill="none" xmlns="http://www.w3.org/2000/svg">
<g clip-path="url(#clip0_3687_2996)">
<path d="M32.9183 10.3029H13.1577C12.6784 10.3029 12.2187 10.4977 11.8797 10.8445C11.5408 11.1912 11.3503 11.6615 11.3503 12.1519V32.3681C11.3503 32.8585 11.5408 33.3288 11.8797 33.6756C12.2187 34.0223 12.6784 34.2171 13.1577 34.2171H26.8295L32.3293 38.8501V34.2171H32.9039C33.3833 34.2171 33.843 34.0223 34.182 33.6756C34.5209 33.3288 34.7113 32.8585 34.7113 32.3681V12.1519C34.7113 11.6641 34.5229 11.196 34.187 10.8496C33.8512 10.5033 33.3952 10.3068 32.9183 10.3029Z" fill="white"/>
<path d="M13.3761 10.3029H33.0017C33.4589 10.3029 33.8974 10.4887 34.2208 10.8195C34.5441 11.1503 34.7257 11.5989 34.7257 12.0667V17.7844C34.7257 17.8023 34.7188 17.8195 34.7064 17.8322C34.694 17.8449 34.6772 17.852 34.6596 17.852H11.4165C11.3989 17.852 11.3821 17.8449 11.3697 17.8322C11.3573 17.8195 11.3504 17.8023 11.3504 17.7844V12.3724C11.3488 12.1 11.4002 11.8299 11.5015 11.5779C11.6028 11.3259 11.752 11.097 11.9405 10.9045C12.1289 10.712 12.3529 10.5597 12.5993 10.4564C12.8458 10.3531 13.1098 10.3009 13.3761 10.3029Z" fill="#FF725E"/>
<path d="M21.4331 21.4149V29.546H19.5941V22.9258H18.0051V21.4149H21.4331Z" fill="#263238"/>
<path d="M29.048 21.4149V22.6348L26.0883 29.546H24.0769L26.9274 22.9494H24.3039V24.281H22.6689V21.4149H29.048Z" fill="#263238"/>
<path d="M26.3039 14.5801C26.3039 14.6213 24.6976 14.6566 22.7178 14.6566C20.738 14.6566 19.1289 14.6272 19.1289 14.5801C19.1289 14.5331 20.7352 14.5037 22.7178 14.5037C24.7005 14.5037 26.3039 14.5448 26.3039 14.5801Z" fill="#263238"/>
<path d="M32.9185 10.3029C32.9185 10.3029 32.9587 10.3029 33.0421 10.3029C33.1625 10.3081 33.282 10.3269 33.3984 10.3587C33.6276 10.4199 33.8428 10.5266 34.0316 10.6729C34.2204 10.8192 34.3792 11.0021 34.4989 11.2112C34.675 11.5192 34.7627 11.8717 34.7518 12.2284C34.7518 12.6135 34.7518 13.0368 34.7518 13.4895C34.7518 14.4008 34.7518 15.4444 34.7518 16.6114C34.7518 18.9632 34.7518 21.7823 34.7518 25.0218C34.7518 26.6416 34.7518 28.3643 34.7518 30.1751C34.7518 30.6307 34.7518 31.0893 34.7518 31.5538V32.2534C34.7602 32.4963 34.7282 32.7389 34.6569 32.9707C34.502 33.4492 34.1684 33.8455 33.7288 34.0731C33.5238 34.1823 33.3006 34.2511 33.0708 34.2759C32.8208 34.2759 32.5881 34.2759 32.3438 34.2759L32.4099 34.2083C32.4099 35.6782 32.4099 37.2333 32.4099 38.8383V38.9912L32.295 38.8942L26.7837 34.2759L26.8297 34.2936H13.135C12.8152 34.2893 12.5018 34.2018 12.2243 34.0393C11.9468 33.8768 11.7143 33.6446 11.5488 33.3646C11.44 33.1832 11.3614 32.9845 11.3161 32.7767C11.2815 32.568 11.268 32.3562 11.2758 32.1447V28.4671C11.2758 25.2511 11.2758 22.1498 11.2758 19.1954C11.2758 17.7158 11.2758 16.2763 11.2758 14.877C11.2758 14.1774 11.2758 13.4915 11.2758 12.8193C11.263 12.4788 11.2745 12.1379 11.3103 11.7992C11.3758 11.4605 11.5286 11.1459 11.7528 10.8879C11.9731 10.636 12.2546 10.4483 12.5689 10.344C12.8775 10.258 13.1981 10.2262 13.5171 10.25H18.7812L29.1256 10.2764H31.9387H32.6685C32.8352 10.2764 32.9185 10.2764 32.9185 10.2764H32.6685H31.9387H29.1256L18.7812 10.2999H15.3532H13.5315C13.2261 10.277 12.9192 10.3069 12.6235 10.3881C12.3296 10.4878 12.0662 10.6641 11.8592 10.8996C11.6504 11.1402 11.5085 11.4335 11.4483 11.7492C11.4153 12.0803 11.4057 12.4133 11.4195 12.7458V14.8035C11.4195 16.2028 11.4195 17.6423 11.4195 19.1219C11.4195 22.0616 11.4195 25.1776 11.4195 28.3937V32.13C11.4122 32.3267 11.4248 32.5238 11.4569 32.7179C11.4972 32.9129 11.5691 33.0997 11.6695 33.2706C11.8733 33.616 12.1867 33.8796 12.5574 34.0173C12.944 34.1279 13.3471 34.1658 13.747 34.129H26.8498L26.8699 34.1466L32.3668 38.7825L32.2519 38.8354C32.2519 37.2303 32.2519 35.6664 32.2519 34.2054V34.1378H32.3208C32.5593 34.1378 32.8064 34.1378 33.0392 34.1378C33.3817 34.1113 33.7089 33.982 33.9798 33.766C34.2507 33.55 34.4533 33.257 34.5621 32.9237C34.6318 32.7057 34.6629 32.4767 34.6541 32.2476V31.5479C34.6541 31.0835 34.6541 30.6249 34.6541 30.1692C34.6541 28.3584 34.6541 26.6416 34.6541 25.016C34.6541 21.7823 34.6541 18.9455 34.6684 16.6056C34.6684 15.4297 34.6684 14.3949 34.6684 13.4836C34.6684 12.5723 34.7834 11.7698 34.4328 11.2289C34.2005 10.8108 33.8164 10.5034 33.3639 10.3734C33.2178 10.3364 33.0687 10.3128 32.9185 10.3029Z" fill="#263238"/>
<path d="M26.5249 7.95998H26.4761C26.0698 7.95998 25.7405 8.29691 25.7405 8.71253V12.6076C25.7405 13.0232 26.0698 13.3602 26.4761 13.3602H26.5249C26.9312 13.3602 27.2605 13.0232 27.2605 12.6076V8.71253C27.2605 8.29691 26.9312 7.95998 26.5249 7.95998Z" fill="#E0E0E0"/>
<path d="M26.5275 13.3602C26.6839 13.3377 26.8322 13.275 26.9585 13.1779C27.0995 13.0596 27.1902 12.8899 27.2114 12.7046C27.2114 12.49 27.2114 12.2225 27.2114 11.9403C27.2114 11.3524 27.2114 10.6821 27.2114 9.93543C27.2114 9.55621 27.2114 9.15936 27.2114 8.75956C27.2161 8.66322 27.2007 8.56695 27.1664 8.47711C27.132 8.38728 27.0795 8.30592 27.0121 8.2384C26.9448 8.17089 26.8642 8.11876 26.7757 8.08546C26.6872 8.05216 26.5928 8.03844 26.4988 8.04522C26.404 8.045 26.3103 8.06563 26.2241 8.1057C26.1378 8.14577 26.061 8.20434 25.9988 8.27745C25.9384 8.35051 25.893 8.43529 25.8653 8.52671C25.8377 8.61814 25.8283 8.71433 25.8379 8.80953C25.8379 9.22109 25.8379 9.61795 25.8379 9.98541C25.8379 10.735 25.8379 11.4141 25.8379 11.9932C25.8379 12.1343 25.8379 12.2695 25.8379 12.3989C25.8275 12.5162 25.8275 12.6343 25.8379 12.7516C25.8728 12.9357 25.9757 13.0989 26.1252 13.2073C26.2588 13.2955 26.412 13.3481 26.5706 13.3602C26.5289 13.3689 26.4859 13.3689 26.4442 13.3602C26.3195 13.354 26.1986 13.3145 26.0936 13.2455C25.9239 13.1336 25.8034 12.9586 25.7574 12.7575C25.739 12.635 25.7323 12.511 25.7373 12.3871C25.7373 12.2578 25.7373 12.1226 25.7373 11.9814C25.7373 11.3935 25.7373 10.7233 25.7201 9.97365C25.7201 9.59737 25.7201 9.20051 25.7201 8.79777C25.7099 8.68442 25.7219 8.57014 25.7555 8.46161C25.789 8.35308 25.8434 8.2525 25.9154 8.16574C25.9906 8.0744 26.0843 8.00081 26.1899 7.95006C26.2956 7.89931 26.4108 7.8726 26.5275 7.87178C26.6428 7.86532 26.7581 7.8837 26.866 7.92573C26.9739 7.96776 27.072 8.0325 27.1539 8.11577C27.2219 8.20483 27.2719 8.30683 27.301 8.41584C27.3301 8.52485 27.3377 8.63869 27.3234 8.75074C27.3234 9.15936 27.3234 9.55621 27.3234 9.92661C27.3234 10.6733 27.3234 11.3524 27.3062 11.9315C27.3062 12.2254 27.3062 12.4694 27.2861 12.7075C27.2717 12.8087 27.2376 12.9058 27.1858 12.9932C27.1339 13.0806 27.0654 13.1564 26.9844 13.2161C26.8857 13.2929 26.7685 13.3406 26.6453 13.3543C26.6068 13.3641 26.5668 13.3661 26.5275 13.3602Z" fill="#263238"/>
<path d="M19.3904 7.95998H19.3416C18.9353 7.95998 18.606 8.29691 18.606 8.71253V12.6076C18.606 13.0232 18.9353 13.3602 19.3416 13.3602H19.3904C19.7967 13.3602 20.126 13.0232 20.126 12.6076V8.71253C20.126 8.29691 19.7967 7.95998 19.3904 7.95998Z" fill="#E0E0E0"/>
<path d="M19.3901 13.3601C19.5476 13.3384 19.697 13.2756 19.8239 13.1779C19.965 13.0596 20.0556 12.8899 20.0768 12.7046C20.0768 12.49 20.0768 12.2225 20.0768 11.9403C20.0768 11.3524 20.0768 10.6821 20.0596 9.93543C20.0596 9.55621 20.0596 9.15935 20.0596 8.75956C20.0643 8.66321 20.0489 8.56695 20.0146 8.47711C19.9803 8.38727 19.9277 8.30591 19.8603 8.2384C19.793 8.17089 19.7124 8.11876 19.6239 8.08546C19.5354 8.05216 19.441 8.03844 19.347 8.04522C19.2522 8.04461 19.1584 8.06506 19.072 8.10516C18.9857 8.14525 18.9089 8.20404 18.847 8.27745C18.7862 8.35036 18.7404 8.43505 18.7122 8.52646C18.6841 8.61787 18.6742 8.71414 18.6832 8.80953C18.6832 9.22109 18.6832 9.61794 18.6832 9.9854C18.6832 10.735 18.6832 11.4141 18.6659 11.9932C18.6659 12.1343 18.6659 12.2695 18.6659 12.3989C18.6554 12.5162 18.6554 12.6343 18.6659 12.7516C18.6998 12.9361 18.8029 13.0997 18.9533 13.2073C19.0858 13.2956 19.238 13.3482 19.3958 13.3601C19.3958 13.3601 19.3556 13.3601 19.2694 13.3601C19.1456 13.3539 19.0257 13.3143 18.9217 13.2455C18.7512 13.1345 18.6304 12.9591 18.5855 12.7575C18.5676 12.6349 18.5599 12.511 18.5625 12.3871C18.5625 12.2578 18.5625 12.1225 18.5625 11.9814C18.5625 11.3935 18.5625 10.7233 18.5625 9.97364C18.5625 9.59736 18.5625 9.20051 18.5625 8.79777C18.5456 8.56872 18.6167 8.34196 18.7608 8.16574C18.8358 8.07424 18.9295 8.00055 19.0351 7.94979C19.1408 7.89903 19.2561 7.87241 19.3728 7.87177C19.4877 7.86499 19.6027 7.88323 19.7102 7.92529C19.8177 7.96735 19.9152 8.03227 19.9964 8.11577C20.075 8.19776 20.1365 8.29533 20.177 8.40249C20.2176 8.50966 20.2362 8.62416 20.232 8.73898C20.232 9.14759 20.232 9.54445 20.232 9.91485C20.232 10.6615 20.232 11.3406 20.232 11.9197C20.232 12.2137 20.232 12.4577 20.2119 12.6958C20.1843 12.8971 20.0813 13.0795 19.9245 13.2043C19.8256 13.2806 19.7085 13.3283 19.5854 13.3425C19.5238 13.3694 19.4554 13.3756 19.3901 13.3601Z" fill="#263238"/>
<g opacity="0.3">
<path opacity="0.3" d="M17.7346 10.5292C17.8304 11.4867 17.7408 12.4541 17.471 13.3761C17.2013 14.2981 16.7565 15.1567 16.1622 15.9028C15.568 16.6489 14.8358 17.2679 14.0076 17.7244C13.1794 18.181 12.2714 18.466 11.3354 18.5634L11.6228 14.5448L15.183 10.5851L17.7346 10.5292Z" fill="black"/>
</g>
<path d="M12.0984 16.895C15.6869 15.9695 17.8626 12.243 16.9579 8.57182C16.0532 4.9006 12.4107 2.6748 8.82223 3.60035C5.23375 4.52591 3.05811 8.25232 3.9628 11.9235C4.8675 15.5948 8.50994 17.8206 12.0984 16.895Z" fill="white"/>
<path d="M10.4547 17.8402C9.03152 17.8393 7.63858 17.4198 6.44189 16.6316C5.24521 15.8435 4.29526 14.72 3.70523 13.395C3.1152 12.07 2.90999 10.5994 3.11404 9.15837C3.31809 7.71739 3.9228 6.36682 4.85611 5.26759C5.78942 4.16836 7.01198 3.36683 8.37808 2.95853C9.74419 2.55022 11.1962 2.55235 12.5612 2.96466C13.9261 3.37698 15.1464 4.18209 16.0767 5.28405C17.0069 6.38601 17.6078 7.73836 17.8078 9.17993C18.0818 11.1731 17.572 13.196 16.3902 14.8052C15.2084 16.4143 13.451 17.4783 11.5035 17.7638C11.1562 17.8152 10.8057 17.8408 10.4547 17.8402ZM10.472 4.13251C10.1836 4.13217 9.89549 4.1528 9.60994 4.19424C8.44021 4.36613 7.34654 4.88891 6.46715 5.69652C5.58776 6.50413 4.96213 7.56032 4.66932 8.7316C4.37651 9.90288 4.42967 11.1367 4.82208 12.277C5.21448 13.4174 5.92853 14.4132 6.87396 15.1385C7.8194 15.8638 8.95379 16.2862 10.1338 16.3521C11.3137 16.418 12.4863 16.1246 13.5034 15.5089C14.5204 14.8932 15.3362 13.9829 15.8476 12.8931C16.3591 11.8032 16.5433 10.5826 16.3769 9.38571C16.1744 7.93007 15.4661 6.59781 14.3816 5.63302C13.2971 4.66822 11.9091 4.13552 10.472 4.13251Z" fill="#455A64"/>
<path d="M10.4716 4.13251C10.504 4.12788 10.5369 4.12788 10.5693 4.13251C10.6325 4.13251 10.7273 4.13251 10.8566 4.13251C11.2229 4.14944 11.5866 4.2026 11.9428 4.29125C12.5075 4.43404 13.0487 4.66085 13.549 4.96443C14.2157 5.3664 14.8009 5.89527 15.2731 6.52246C15.8436 7.28494 16.2305 8.17421 16.4024 9.1182C16.4462 9.37704 16.4769 9.63804 16.4943 9.90015C16.5015 10.0343 16.5015 10.1687 16.4943 10.3029C16.4943 10.4381 16.4943 10.5763 16.4943 10.7115C16.4486 11.2769 16.3327 11.834 16.1495 12.3695C15.9366 12.926 15.6535 13.4518 15.3076 13.9334C14.9402 14.4277 14.508 14.8679 14.0232 15.2415C12.9835 16.0182 11.7288 16.4353 10.4415 16.4322C9.15416 16.429 7.90141 16.0057 6.86545 15.2239C6.37984 14.85 5.94754 14.4088 5.58102 13.9128C5.24288 13.4274 4.96852 12.8986 4.76497 12.3401C4.58359 11.8054 4.46965 11.2492 4.4259 10.685C4.34952 9.54131 4.58593 8.39841 5.10867 7.3844C5.6314 6.37038 6.4198 5.52531 7.38554 4.94386C8.07198 4.53422 8.83247 4.27121 9.62107 4.17072L10.0837 4.14426L10.371 4.12957C10.4035 4.12627 10.4362 4.12627 10.4687 4.12957H10.371L10.0837 4.15602L9.62394 4.19718C9.44291 4.22658 9.2389 4.26773 9.00903 4.32652C7.70614 4.66729 6.55513 5.45094 5.74481 6.54892C5.18699 7.2987 4.80816 8.17148 4.63854 9.09762C4.54396 9.61096 4.51595 10.1348 4.55521 10.6556C4.59916 11.208 4.71214 11.7524 4.8914 12.2754C5.09146 12.8199 5.36103 13.3348 5.69309 13.807C6.05233 14.2901 6.47486 14.7204 6.94878 15.0857C7.96013 15.8465 9.18188 16.2582 10.4372 16.2614C11.6925 16.2646 12.9162 15.859 13.9312 15.1034C14.4066 14.7399 14.8302 14.3105 15.1898 13.8276C15.5236 13.3566 15.7951 12.8426 15.9972 12.2989C16.1805 11.7777 16.2964 11.2341 16.342 10.6821C16.3593 10.5498 16.342 10.4146 16.342 10.2823C16.3492 10.1511 16.3492 10.0196 16.342 9.88839C16.3162 9.62676 16.3047 9.37101 16.2558 9.12114C16.0917 8.19409 15.7178 7.31922 15.1639 6.56656C14.3525 5.47082 13.2067 4.68352 11.9083 4.32946C11.556 4.23542 11.1965 4.17248 10.8337 4.14132C10.6038 4.13839 10.4716 4.13839 10.4716 4.13251Z" fill="#263238"/>
<path d="M10.4546 17.8402C10.4546 17.8402 10.4949 17.8402 10.5753 17.8402L10.9259 17.8138C11.081 17.7991 11.2707 17.7814 11.5006 17.7462L12.2678 17.5845C12.9566 17.3937 13.6175 17.1099 14.2332 16.7408C15.0399 16.2367 15.7483 15.5838 16.3222 14.8153C17.0089 13.878 17.4759 12.7917 17.687 11.6404C17.7203 11.4854 17.7433 11.3283 17.756 11.1701C17.756 11.0114 17.7905 10.8526 17.8049 10.688C17.8192 10.5234 17.8049 10.3646 17.8049 10.1971V9.95013L17.7819 9.70026C17.7374 9.01243 17.5981 8.33449 17.3681 7.68658C16.8516 6.2386 15.9136 4.98743 14.6805 4.10174C13.4474 3.21605 11.9785 2.73841 10.4719 2.73323C8.96091 2.72813 7.4852 3.19991 6.24592 4.08424C5.00665 4.96858 4.06414 6.22243 3.5469 7.67482C3.09378 8.94349 2.98748 10.3146 3.23944 11.6404C3.34633 12.238 3.52287 12.8203 3.76528 13.3749C3.88224 13.6346 4.01269 13.8878 4.15607 14.1333L4.3687 14.489L4.60719 14.8153C5.17427 15.5846 5.88052 16.2353 6.68756 16.732C7.30121 17.1052 7.96271 17.3892 8.65298 17.5757C8.90414 17.6454 9.15945 17.6985 9.41732 17.7344C9.6073 17.7692 9.79924 17.7918 9.992 17.802L10.3454 17.8285C10.3856 17.8253 10.426 17.8253 10.4661 17.8285H10.3454H9.992C9.79937 17.8242 9.6073 17.8055 9.41732 17.7726C9.15734 17.7438 8.89989 17.6946 8.64724 17.6256C7.94754 17.4486 7.27608 17.1704 6.65308 16.7996C5.82533 16.3042 5.09854 15.6505 4.51237 14.8741L4.271 14.5448L4.05262 14.1862C3.90497 13.9331 3.77069 13.6721 3.65034 13.4043C3.40213 12.8405 3.22078 12.2483 3.11014 11.6404C2.8535 10.2945 2.95877 8.9026 3.41472 7.61309C3.94145 6.13449 4.90067 4.85781 6.16187 3.95678C7.42306 3.05575 8.92497 2.57412 10.4632 2.57742C12.0022 2.57873 13.5034 3.06471 14.7629 3.96933C16.0224 4.87395 16.9792 6.15335 17.5031 7.63367C17.7369 8.29584 17.8772 8.98874 17.9198 9.69144L17.9399 9.94425V10.1971C17.9399 10.3646 17.9399 10.5322 17.9399 10.6968C17.9399 10.8614 17.8939 11.0202 17.8939 11.1819C17.8817 11.3432 17.8577 11.5034 17.8221 11.661C17.597 12.8301 17.1102 13.9299 16.3998 14.8741C15.8145 15.6494 15.0922 16.3055 14.2705 16.8084C13.6447 17.1741 12.9741 17.4528 12.2764 17.6374L11.5006 17.7844C11.31 17.8121 11.1182 17.8298 10.9259 17.8373C10.7707 17.8373 10.6385 17.8373 10.5724 17.8373L10.4546 17.8402Z" fill="#263238"/>
<path d="M13.8607 0.799513L13.2485 1.804L17.1857 4.31554L17.7979 3.31106L13.8607 0.799513Z" fill="#455A64"/>
<path d="M17.1782 4.34417C17.1782 4.34417 17.2299 4.23834 17.3305 4.0502L17.7529 3.3094L17.7673 3.37113C16.8765 2.82141 15.4369 1.93951 13.8249 0.895927L13.9284 0.872409L13.9082 0.904746L13.8479 0.998815L13.7703 1.12816L13.6152 1.38097L13.3278 1.87484L13.2962 1.76901C14.3967 2.48041 15.3593 3.11538 16.0547 3.57985L16.8765 4.12957C17.069 4.26186 17.1638 4.33535 17.1638 4.34417C17.0629 4.2994 16.9666 4.24424 16.8765 4.17954L16.0547 3.67686C15.3478 3.24179 14.3479 2.61858 13.2129 1.89836L13.1497 1.8572L13.1899 1.79547L13.4772 1.29866L13.6439 1.05761L13.7215 0.931203L13.7617 0.86653L13.7818 0.822435V0.804797L13.9025 0.763641C15.5174 1.79547 16.9426 2.72147 17.8161 3.30058L17.8535 3.32704L17.8305 3.36525C17.6236 3.68568 17.4598 3.93555 17.3506 4.10017C17.301 4.18705 17.2433 4.26877 17.1782 4.34417Z" fill="#263238"/>
<path d="M4.39619 2.4495L1.17725 6.1967L2.04491 6.97681L5.26386 3.22961L4.39619 2.4495Z" fill="#455A64"/>
<path d="M2.04649 6.97517C2.04649 6.97517 2.13269 6.85758 2.28786 6.66357L2.95162 5.85516C3.5263 5.17609 4.30213 4.23833 5.20439 3.18005V3.28588L4.34236 2.50687H4.44868L4.41994 2.52744L4.38833 2.57154L4.32799 2.64209L4.20443 2.78613L3.96019 3.0801L3.48895 3.61806L2.60681 4.63225L1.21032 6.22555V6.16088C1.46031 6.399 1.66432 6.59595 1.82523 6.74882C1.90441 6.82054 1.97926 6.89711 2.04936 6.97811C1.96171 6.92411 1.87901 6.86212 1.80225 6.79291C1.64996 6.66651 1.42295 6.47837 1.13849 6.22849L1.104 6.1991L1.13274 6.16382L2.49474 4.54406L3.35677 3.51811L3.851 2.96839C3.92859 2.87432 4.01191 2.78025 4.09237 2.67443L4.21593 2.53038L4.27627 2.45689L4.30788 2.42161L4.32512 2.40398H4.43144C4.71878 2.67443 5.00612 2.93606 5.29346 3.18593L5.34806 3.2359L5.29921 3.29176C4.38833 4.35592 3.56653 5.29074 2.98035 5.94923L2.2936 6.71648C2.21687 6.80817 2.13432 6.89459 2.04649 6.97517Z" fill="#263238"/>
<path d="M7.53784 10.8467L8.10965 9.73259L10.1527 10.6792L12.3508 6.5842L13.3795 7.18683L10.532 12.3518L7.53784 10.8467Z" fill="#455A64"/>
<path d="M10.5349 12.3607L7.5293 10.8497L8.10398 9.72965L10.1412 10.6703L12.348 6.57538L13.3825 7.18095L10.5349 12.3607ZM7.54941 10.8438L10.532 12.343L13.3739 7.18977L12.3567 6.60184L10.1556 10.688L8.1241 9.74435L7.54941 10.8438Z" fill="#263238"/>
<path d="M6.46855 18.7104C6.35994 18.6763 6.25499 18.631 6.15535 18.5751C6.03521 18.518 5.91818 18.4542 5.80479 18.3841C5.65041 18.2942 5.50079 18.1961 5.35653 18.0901C4.97491 17.8285 4.61629 17.5334 4.28474 17.2082C3.87942 16.8106 3.51189 16.3745 3.18709 15.9059C2.873 15.4365 2.60176 14.9386 2.37679 14.4184C2.19445 13.9888 2.0474 13.5443 1.93715 13.0897C1.89298 12.9153 1.8575 12.7387 1.83084 12.5606C1.80424 12.4276 1.78601 12.2931 1.77624 12.1578C1.75901 12.0431 1.75323 11.9269 1.759 11.8109C1.78773 11.8109 1.83371 12.2989 2.04634 13.0603C2.16802 13.5058 2.32268 13.9411 2.50896 14.3626C2.74184 14.8754 3.01675 15.3671 3.33077 15.8324C3.64713 16.2923 4.00086 16.724 4.38819 17.1229C4.71255 17.4423 5.05923 17.7371 5.42549 18.0048C6.04615 18.4722 6.48292 18.6957 6.46855 18.7104Z" fill="#263238"/>
<path d="M3.07826 17.1435C2.89458 16.9768 2.73323 16.7861 2.5984 16.5762C2.24879 16.0895 1.94387 15.5709 1.68752 15.0269C1.43151 14.4816 1.22658 13.9127 1.07548 13.3278C0.997345 13.0904 0.951891 12.8431 0.94043 12.5929C1.03206 12.823 1.10979 13.0586 1.17318 13.2984C1.35132 13.8661 1.56635 14.421 1.81683 14.9593C2.07132 15.496 2.35926 16.0155 2.67885 16.5144C2.82652 16.7141 2.96 16.9243 3.07826 17.1435Z" fill="#263238"/>
</g>
<defs>
<clipPath id="clip0_3687_2996">
<rect width="34.4754" height="38.2364" fill="white" transform="translate(0.313477 0.763641)"/>
</clipPath>
</defs>
</svg>
